<?xml version="1.0" encoding="UTF-8" standalone="no"?>
<!-- Created with Inkscape (http://www.inkscape.org/) -->

<svg
   width="268.68759mm"
   height="69.865639mm"
   viewBox="0 0 268.68759 69.865638"
   version="1.1"
   id="svg1"
   xml:space="preserve"
   xmlns="http://www.w3.org/2000/svg"
   xmlns:svg="http://www.w3.org/2000/svg"><defs
     id="defs1" /><g
     id="layer1"
     transform="translate(-12.620576,5.7330484)"><path
       style="-inkscape-font-specification:'Lexend, Medium';fill:#77ba00;stroke:#000000;stroke-width:0"
       d="m 31.213376,30.792151 q -4.064,0 -7.4676,-1.3716 -3.3528,-1.4224 -5.842,-3.9116 -2.4892,-2.4892 -3.9116,-5.7912 -1.3716,-3.3528 -1.3716,-7.2644 0,-3.8607996 1.4224,-7.1627995 1.4224,-3.3528 3.9116,-5.79119996 2.54,-2.48919994 5.9436,-3.86079994 3.4036,-1.3716 7.4168,-1.3716 4.1656,0 7.8232,1.6764 3.6576,1.6764 5.6896,4.31799993 l -4.1656,4.36879997 q -2.1336,-2.032 -4.4704,-3.0988 -2.3368,-1.11759997 -4.9276,-1.11759997 -3.3528,0 -6.0452,1.57479997 -2.6924,1.5748 -4.2672,4.3179999 -1.5748,2.6924 -1.5748,6.1467996 0,3.3528 1.6256,6.1468 1.6764,2.7432 4.4196,4.4196 2.7432,1.6256 6.096,1.6256 2.4892,0 4.5212,-0.9652 2.0828,-0.9652 3.302,-2.5908 1.2192,-1.6764 1.2192,-3.7084 v -0.0508 h -9.6012 v -5.8928 h 16.1036 q 0.1524,0.8636 0.2032,1.9304 0.0508,1.016 0.0508,1.7272 0,4.6228 -2.1336,8.1788 -2.1336,3.556 -5.7912,5.5372 -3.6576,1.9812 -8.1788,1.9812 z m 23.063168,-0.508 V -5.2758484 h 14.782799 q 3.048,0 5.5372,1.4732 2.4892,1.4732 3.9116,4.01319993 1.4732,2.53999997 1.4732,5.68959987 0,3.2004 -1.4732,5.7911996 -1.4224,2.54 -3.9116,4.064 -2.4892,1.524 -5.5372,1.524 h -8.178799 v 13.0048 z m 6.604,-19.1008 h 7.721599 q 1.8796,0 3.2512,-1.5239996 1.3716,-1.524 1.3716,-3.7084 0,-2.1843999 -1.3716,-3.6575999 -1.3716,-1.47319998 -3.2512,-1.47319998 h -7.721599 z m 40.335156,19.4056 q -4.2164,0 -7.5184,-1.778 -3.302,-1.8288 -5.2324,-4.9784 -1.8796,-3.2004 -1.8796,-7.2136 V -5.3266484 h 6.6548 V 16.161751 q 0,2.3368 1.0668,4.2164 1.1176,1.8796 2.8956,2.9972 1.8288,1.1176 4.0132,1.1176 2.3368,0 4.2164,-1.1176 1.8796,-1.1176 2.9464,-2.9972 1.1176,-1.8796 1.1176,-4.2164 V -5.3266484 h 6.4008 V 16.618951 q 0,4.0132 -1.9304,7.2136 -1.8796,3.1496 -5.1816,4.9784 -3.302,1.778 -7.5692,1.778 z m 31.64831,0.2032 q -3.6576,0 -6.4516,-1.7272 -2.79399,-1.778 -4.31799,-4.7244 l 4.01319,-4.1148 q 1.8796,2.6416 3.2512,3.5052 1.4224,0.8636 3.1496,0.8636 2.4384,0 3.9116,-1.6256 1.524,-1.6256 1.524,-4.1656 V 0.66775152 h -6.5532 V -5.2758484 h 18.542 v 5.94359992 h -5.4864 V 19.463751 q 0,3.302 -1.524,5.8928 -1.4732,2.54 -4.1148,4.0132 -2.5908,1.4224 -5.9436,1.4224 z m 24.68879,-0.508 V -5.2758484 h 14.7828 q 3.048,0 5.5372,1.4732 2.4892,1.4732 3.9116,4.01319993 1.4732,2.53999997 1.4732,5.68959987 0,3.2004 -1.4732,5.7911996 -1.4224,2.54 -3.9116,4.064 -2.4892,1.524 -5.5372,1.524 h -8.1788 v 13.0048 z m 6.604,-19.1008 h 7.7216 q 1.8796,0 3.2512,-1.5239996 1.3716,-1.524 1.3716,-3.7084 0,-2.1843999 -1.3716,-3.6575999 -1.3716,-1.47319998 -3.2512,-1.47319998 h -7.7216 z m 26.11115,19.1008 V -5.2758484 h 23.26639 V 0.71855152 H 196.82115 V 9.1513514 h 14.1224 v 5.8927996 h -14.1224 v 9.2456 h 16.91639 v 5.9944 z m 47.9043,0.508 q -4.064,0 -7.4676,-1.3716 -3.3528,-1.4224 -5.842,-3.9116 -2.4892,-2.4892 -3.9116,-5.7912 -1.3716,-3.3528 -1.3716,-7.2644 0,-3.8607996 1.4224,-7.1627995 1.4224,-3.3528 3.9116,-5.79119996 2.54,-2.48919994 5.9436,-3.86079994 3.4036,-1.3716 7.4168,-1.3716 4.1656,0 7.8232,1.6764 3.6576,1.6764 5.6896,4.31799993 l -4.1656,4.36879997 q -2.1336,-2.032 -4.4704,-3.0988 -2.3368,-1.11759997 -4.9276,-1.11759997 -3.3528,0 -6.0452,1.57479997 -2.6924,1.5748 -4.2672,4.3179999 -1.5748,2.6924 -1.5748,6.1467996 0,3.3528 1.6256,6.1468 1.6764,2.7432 4.4196,4.4196 2.7432,1.6256 6.096,1.6256 2.4892,0 4.5212,-0.9652 2.0828,-0.9652 3.302,-2.5908 1.2192,-1.6764 1.2192,-3.7084 v -0.0508 h -9.6012 v -5.8928 h 16.1036 q 0.1524,0.8636 0.2032,1.9304 0.0508,1.016 0.0508,1.7272 0,4.6228 -2.1336,8.1788 -2.1336,3.556 -5.7912,5.5372 -3.6576,1.9812 -8.1788,1.9812 z"
       id="text1"
       aria-label="GPUJPEG" /><g
       id="g1"
       transform="matrix(0.25915869,0,0,0.27793817,213.17953,33.932591)"><g
         id="Protection_Zone">
	<rect
   y="124.8"
   class="st0"
   width="40.799999"
   height="40.799999"
   id="rect1"
   x="0" />
	<rect
   x="262.20001"
   y="124.8"
   class="st0"
   width="40.799999"
   height="40.799999"
   id="rect2" />
	<rect
   x="262.20001"
   y="0.1"
   class="st0"
   width="40.799999"
   height="40.799999"
   id="rect3" />
	<rect
   y="0.1"
   class="st0"
   width="40.799999"
   height="40.799999"
   id="rect4"
   x="0" />
</g><g
         id="cesnet"
         transform="translate(0.78379675,-16.242724)">
	<g
   id="g16">
		<g
   id="g9">
			<path
   class="st1"
   d="m 262.1,58.8 v -8 h -9.5 V 41 h -9.7 v 9.8 h -6.7 v 8 h 6.7 v 17.6 c 0,1.9 0.2,3.6 0.5,5.2 0.3,1.6 1,3.1 1.9,4.4 0.9,1.3 2.2,2.3 3.8,3 1.6,0.7 3.7,1.1 6.3,1.1 1.1,0 2.2,-0.1 3.4,-0.3 1.2,-0.2 2.2,-0.4 3,-0.8 h 0.1 l -0.3,-7.8 -0.2,0.1 c -0.6,0.3 -1.2,0.5 -1.9,0.6 -0.7,0.1 -1.4,0.2 -2,0.2 -2,0 -3.4,-0.5 -3.9,-1.6 -0.6,-1.1 -0.9,-2.5 -0.9,-4.1 V 58.8 Z"
   id="path4" />
			<path
   class="st1"
   d="m 84,66 c 0.2,-2.5 1.3,-4.7 3.2,-6.3 1.9,-1.7 4.3,-2.5 7.1,-2.5 1.5,0 2.8,0.2 3.9,0.7 1.1,0.5 2,1.2 2.8,2 0.7,0.8 1.3,1.8 1.6,2.9 0.3,1 0.5,2.1 0.5,3.3 H 84 Z M 107.7,54.9 C 106,53.2 104.1,51.8 101.8,51 99.5,50.1 97,49.7 94.4,49.7 c -2.9,0 -5.6,0.5 -8,1.5 -2.5,1 -4.6,2.4 -6.4,4.2 -1.8,1.8 -3.2,4 -4.3,6.5 -1,2.5 -1.6,5.4 -1.6,8.4 0,3.1 0.5,6 1.6,8.4 1,2.5 2.5,4.6 4.3,6.3 1.8,1.7 4,3 6.5,4 2.5,0.9 5.3,1.4 8.2,1.4 7.2,0 12.7,-2.6 16.5,-7.7 l 0.1,-0.1 -6.6,-5.3 -0.1,0.2 c -1,1.5 -2.4,2.7 -4,3.6 C 99,82 97,82.4 94.7,82.4 93.4,82.4 92,82.2 90.8,81.7 89.6,81.2 88.4,80.6 87.4,79.8 86.4,79 85.6,78 85,76.9 84.4,75.8 84.1,74.7 84,73.4 h 28.9 v -0.2 c 0.1,-0.4 0.1,-0.9 0.1,-1.3 v -1.3 c 0,-3.4 -0.5,-6.5 -1.4,-9.1 -0.9,-2.7 -2.2,-4.8 -3.9,-6.6"
   id="path5" />
			<path
   class="st1"
   d="m 50.6,61.8 c 0.9,-1.1 1.9,-2.1 3.2,-2.8 1.3,-0.7 2.8,-1.1 4.5,-1.1 1.5,0 3,0.4 4.4,1.1 1.4,0.7 2.5,1.6 3.3,2.6 l 0.1,0.2 6.7,-5.8 0.1,-0.1 -0.1,-0.1 c -1.5,-1.9 -3.7,-3.4 -6.3,-4.4 -2.6,-1.1 -5.4,-1.6 -8.2,-1.6 -2.8,0 -5.5,0.5 -8,1.4 -2.5,1 -4.7,2.3 -6.5,4.1 -1.9,1.8 -3.4,3.9 -4.4,6.4 -1.1,2.5 -1.6,5.3 -1.6,8.4 0,3.2 0.6,6.1 1.6,8.6 1.1,2.5 2.6,4.6 4.5,6.4 1.9,1.8 4.1,3.1 6.6,4 2.5,0.9 5.2,1.4 8,1.4 2.9,0 5.6,-0.5 8,-1.4 2.5,-0.9 4.5,-2.3 6.1,-4 l 0.1,-0.1 -6.1,-6.2 -0.1,-0.1 -0.1,0.2 c -0.9,1.1 -2.1,1.9 -3.5,2.5 -1.5,0.6 -2.9,0.9 -4.4,0.9 -1.8,0 -3.3,-0.4 -4.6,-1 C 52.6,80.6 51.5,79.7 50.6,78.5 49.7,77.4 49,76.1 48.6,74.6 48.3,72.9 48,71.5 48,70 c 0,-1.5 0.2,-2.9 0.6,-4.4 0.5,-1.4 1.1,-2.7 2,-3.8"
   id="path6" />
			<path
   class="st1"
   d="m 186,54.5 c -1.1,-1.4 -2.6,-2.6 -4.4,-3.5 -1.8,-0.9 -4,-1.3 -6.5,-1.3 -2.9,0 -5.4,0.7 -7.5,2.2 -2,1.4 -3.4,3 -4.3,4.7 v -5.8 h -9.4 v 38.4 h 9.9 V 68.1 c 0,-1.2 0.2,-2.5 0.5,-3.7 0.4,-1.2 0.9,-2.3 1.6,-3.2 0.7,-0.9 1.6,-1.7 2.7,-2.3 1.1,-0.6 2.4,-0.9 3.9,-0.9 1.5,0 2.7,0.3 3.6,0.9 0.9,0.6 1.6,1.4 2.1,2.4 0.5,1 0.9,2 1,3.2 0.2,1.2 0.2,2.4 0.2,3.5 v 21.3 h 9.9 v -24 c 0,-2 -0.3,-3.9 -0.8,-5.8 -0.5,-1.9 -1.4,-3.5 -2.5,-5"
   id="path7" />
			<path
   class="st1"
   d="m 129.7,58.1 c 1.2,-0.6 2.6,-0.9 4.1,-0.9 1.7,0 3.3,0.4 4.8,1.2 1.5,0.8 2.6,1.8 3.4,2.8 l 0.1,0.2 6.5,-5.7 -0.1,-0.1 c -1.5,-2 -3.7,-3.5 -6.3,-4.4 -2.6,-1 -5.4,-1.4 -8.1,-1.4 -1.9,0 -3.8,0.2 -5.6,0.7 -1.8,0.5 -3.5,1.2 -4.9,2.2 -1.4,1 -2.6,2.3 -3.5,3.8 -0.9,1.6 -1.3,3.4 -1.3,5.6 0,1.8 0.3,3.4 1,4.6 0.6,1.2 1.5,2.3 2.6,3.1 1.1,0.8 2.3,1.5 3.7,2 1.3,0.5 2.8,0.9 4.2,1.2 2.9,0.7 5.1,1.4 6.5,2.1 1.4,0.7 2.1,1.7 2.1,3.2 0,0.8 -0.2,1.5 -0.5,2 -0.4,0.6 -0.8,1 -1.4,1.3 -0.6,0.3 -1.2,0.6 -1.9,0.7 -0.7,0.2 -1.4,0.2 -2.1,0.2 -2,0 -3.9,-0.4 -5.6,-1.3 -1.7,-0.9 -3,-2 -4.1,-3.4 l -0.1,-0.2 -6.5,6.1 0.1,0.1 c 1.9,2 4.2,3.6 7,4.7 2.8,1.1 5.7,1.6 8.7,1.6 2.1,0 4.1,-0.2 6,-0.7 1.9,-0.5 3.7,-1.2 5.1,-2.2 1.5,-1 2.7,-2.4 3.5,-4 0.9,-1.6 1.3,-3.6 1.3,-6 0,-1.9 -0.4,-3.5 -1.1,-4.8 -0.7,-1.3 -1.7,-2.4 -2.9,-3.3 -1.2,-0.9 -2.5,-1.6 -4,-2.1 -1.5,-0.5 -2.9,-1 -4.3,-1.3 -2.7,-0.6 -4.7,-1.3 -6.1,-1.9 -1.3,-0.6 -2,-1.6 -2,-3 -0.2,-1.1 0.4,-2.1 1.7,-2.7"
   id="path8" />
			<path
   class="st1"
   d="m 204.6,66 c 0.2,-2.5 1.3,-4.7 3.2,-6.3 1.9,-1.7 4.3,-2.5 7.1,-2.5 1.5,0 2.8,0.2 3.9,0.7 1.1,0.5 2,1.2 2.8,2 0.7,0.8 1.3,1.8 1.6,2.9 0.3,1 0.5,2.1 0.5,3.3 h -19.1 z m 23.7,-11.1 c -1.7,-1.7 -3.6,-3.1 -5.9,-3.9 -2.3,-0.9 -4.8,-1.3 -7.4,-1.3 -2.9,0 -5.6,0.5 -8,1.5 -2.5,1 -4.6,2.4 -6.4,4.2 -1.8,1.8 -3.2,4 -4.3,6.5 -1,2.5 -1.6,5.4 -1.6,8.4 0,3.1 0.5,6 1.6,8.4 1,2.5 2.5,4.6 4.3,6.3 1.8,1.7 4,3 6.5,4 2.5,0.9 5.3,1.4 8.2,1.4 7.2,0 12.7,-2.6 16.5,-7.7 l 0.1,-0.1 -6.6,-5.3 -0.1,0.2 c -1,1.5 -2.4,2.7 -4,3.6 -1.6,0.9 -3.6,1.3 -5.9,1.3 -1.3,0 -2.7,-0.2 -3.9,-0.7 -1.2,-0.5 -2.4,-1.1 -3.4,-1.9 -1,-0.8 -1.8,-1.8 -2.4,-2.9 -0.6,-1.1 -0.9,-2.2 -1,-3.5 h 28.9 v -0.2 c 0.1,-0.4 0.1,-0.9 0.1,-1.3 v -1.3 c 0,-3.4 -0.5,-6.5 -1.4,-9.1 -0.9,-2.7 -2.2,-4.8 -3.9,-6.6"
   id="path9" />
		</g>
		<g
   id="g15">
			<polygon
   class="st2"
   points="136.1,115 136.1,105.1 146,105.1 146,115 "
   id="polygon9" />
			<polygon
   class="st2"
   points="120.2,115 120.2,105.1 130.1,105.1 130.1,115 "
   id="polygon10" />
			<polygon
   class="st2"
   points="104.3,124.9 114.2,124.9 114.2,115 104.3,115 "
   id="polygon11" />
			<polygon
   class="st2"
   points="88.5,124.9 98.3,124.9 98.3,115 88.5,115 "
   id="polygon12" />
			<polygon
   class="st2"
   points="72.6,124.9 82.5,124.9 82.5,115 72.6,115 "
   id="polygon13" />
			<polygon
   class="st2"
   points="40.8,115 40.8,105.1 50.7,105.1 50.7,115 "
   id="polygon14" />
			<polygon
   class="st2"
   points="56.7,115 56.7,105.1 66.6,105.1 66.6,115 "
   id="polygon15" />
		</g>
	</g>
	<g
   id="g17">
	</g>
	<g
   id="g18">
	</g>
	<g
   id="g19">
	</g>
	<g
   id="g20">
	</g>
	<g
   id="g21">
	</g>
	<g
   id="g22">
	</g>
</g></g></g><style
     type="text/css"
     id="style1">
	.st0{fill:none;}
	.st1{fill:#5A5A5A;}
	.st2{fill:#0068A2;}
</style></svg>
